<svg width="223" height="16.32" version="1.1" viewBox="0 0 223 16.32" xmlns="http://www.w3.org/2000/svg">
 <g stroke="#000" stroke-linecap="square" stroke-width=".5" style="paint-order:markers fill stroke" aria-label="Xupypx-sys">
  <path d="m23.9-2.441e-7 -5.064 4.632q-0.84 0.768-1.416 1.296-0.576 0.504-0.984 0.864-0.408 0.336-0.696 0.576-0.264 0.216-0.48 0.384 0.216 0.144 0.48 0.36t0.696 0.624q0.432 0.384 1.08 0.984 0.648 0.6 1.632 1.512l5.136 4.824h-7.008l-5.472-5.304-5.64 5.304h-6.168l5.232-4.824q0.912-0.84 1.536-1.392 0.624-0.576 1.032-0.936t0.672-0.576q0.288-0.216 0.504-0.384-0.216-0.168-0.48-0.36-0.264-0.216-0.672-0.576-0.408-0.384-1.032-0.936-0.624-0.576-1.56-1.464l-4.92-4.608h6.888l5.112 4.992 5.16-4.992z" fill="#fff" stroke="none"/>
  <path d="m25.85 16.06m21.07-7.008q0 7.272-10.01 7.272-2.904 0-4.992-0.456t-3.456-1.368q-1.344-0.912-1.992-2.256-0.624-1.368-0.624-3.192v-9.048h4.944v9.048q0 0.888 0.24 1.488 0.24 0.6 0.888 0.984 0.672 0.36 1.872 0.528 1.2 0.144 3.12 0.144 1.44 0 2.4-0.168t1.536-0.552 0.816-0.984q0.264-0.6 0.264-1.44v-9.048h4.992z" fill="#fff" stroke="none"/>
  <path d="m49.68 16.06m21.24-10.03q0 1.344-0.528 2.448-0.528 1.08-1.56 1.848-1.008 0.768-2.472 1.2t-3.336 0.432h-8.4v4.104h-4.944v-8.208h13.82q1.152 0 1.776-0.504 0.648-0.504 0.648-1.344t-0.648-1.32q-0.624-0.504-1.776-0.504h-13.82l3.288-4.176h10.08q1.872 0 3.336 0.456 1.464 0.432 2.472 1.224 1.008 0.792 1.536 1.896t0.528 2.448z" fill="#fff" stroke="none"/>
  <path d="m72.12 16.06m24.31-16.06-9.528 10.75v5.304h-4.992v-5.328l-9.792-10.73h6.384l3.84 4.464q0.192 0.216 0.504 0.576 0.312 0.336 0.648 0.72t0.624 0.72 0.408 0.504q0.24-0.336 0.696-0.912t1.32-1.632l3.648-4.44z" fill="#fff" stroke="none"/>
  <path d="m95.9 16.06m21.24-10.03q0 1.344-0.528 2.448-0.528 1.08-1.56 1.848-1.008 0.768-2.472 1.2t-3.336 0.432h-8.4v4.104h-4.944v-8.208h13.82q1.152 0 1.776-0.504 0.648-0.504 0.648-1.344t-0.648-1.32q-0.624-0.504-1.776-0.504h-13.82l3.288-4.176h10.08q1.872 0 3.336 0.456 1.464 0.432 2.472 1.224 1.008 0.792 1.536 1.896t0.528 2.448z" fill="#fff" stroke="none"/>
  <path d="m118.6 16.06m23.9-16.06-5.064 4.632q-0.84 0.768-1.416 1.296-0.576 0.504-0.984 0.864-0.408 0.336-0.696 0.576-0.264 0.216-0.48 0.384 0.216 0.144 0.48 0.36t0.696 0.624q0.432 0.384 1.08 0.984 0.648 0.6 1.632 1.512l5.136 4.824h-7.008l-5.472-5.304-5.64 5.304h-6.168l5.232-4.824q0.912-0.84 1.536-1.392 0.624-0.576 1.032-0.936t0.672-0.576q0.288-0.216 0.504-0.384-0.216-0.168-0.48-0.36-0.264-0.216-0.672-0.576-0.408-0.384-1.032-0.936-0.624-0.576-1.56-1.464l-4.92-4.608h6.888l5.112 4.992 5.16-4.992z" fill="#fff" stroke="none"/>
  <path d="m153.9 6.384-2.424 3.096h-8.016l2.424-3.096z" fill="#e6e6e6"/>
  <path d="m154.8 16.06m15.82-9.648q2.952 0 4.488 1.104 1.536 1.08 1.536 3.288 0 1.224-0.384 2.208t-1.224 1.656-2.16 1.032q-1.296 0.36-3.12 0.36h-14.95l3.192-4.128h12.14q0.888 0 1.296-0.264 0.408-0.288 0.408-0.912t-0.408-0.888q-0.408-0.264-1.296-0.264h-8.736q-1.56 0-2.688-0.336t-1.872-0.936-1.104-1.44q-0.36-0.864-0.36-1.896 0-1.128 0.384-2.04 0.408-0.936 1.224-1.584 0.84-0.648 2.136-1.008 1.32-0.36 3.144-0.36h13.94l-3.192 4.176h-11.14q-0.864 0-1.296 0.24-0.408 0.24-0.408 0.864t0.408 0.888q0.432 0.24 1.296 0.24z" fill="#b3b3b3" stroke="none"/>
  <path d="m177.6 16.06m24.31-16.06-9.528 10.75v5.304h-4.992v-5.328l-9.792-10.73h6.384l3.84 4.464q0.192 0.216 0.504 0.576 0.312 0.336 0.648 0.72t0.624 0.72 0.408 0.504q0.24-0.336 0.696-0.912t1.32-1.632l3.648-4.44z" fill="#b3b3b3" stroke="none"/>
  <path d="m201.2 16.06m15.82-9.648q2.952 0 4.488 1.104 1.536 1.08 1.536 3.288 0 1.224-0.384 2.208t-1.224 1.656-2.16 1.032q-1.296 0.36-3.12 0.36h-14.95l3.192-4.128h12.14q0.888 0 1.296-0.264 0.408-0.288 0.408-0.912t-0.408-0.888q-0.408-0.264-1.296-0.264h-8.736q-1.56 0-2.688-0.336t-1.872-0.936-1.104-1.44q-0.36-0.864-0.36-1.896 0-1.128 0.384-2.04 0.408-0.936 1.224-1.584 0.84-0.648 2.136-1.008 1.32-0.36 3.144-0.36h13.94l-3.192 4.176h-11.14q-0.864 0-1.296 0.24-0.408 0.24-0.408 0.864t0.408 0.888q0.432 0.24 1.296 0.24z" fill="#b3b3b3" stroke="none"/>
 </g>
</svg>
