<svg width="215" height="47" version="1.1" viewBox="0 0 215 47" xmlns="http://www.w3.org/2000/svg">
 <defs>
  <linearGradient id="a" x1="102.5%" x2="-2.592%" y1="69.6%" y2="12.26%">
   <stop stop-color="#1E87F0" offset="0"/>
   <stop stop-color="#2AC4EE" offset="1"/>
  </linearGradient>
  <linearGradient id="b" x1="27.34%" x2="86.22%" y1="25.62%" y2="74.54%">
   <stop stop-color="#42BEF9" offset="0"/>
   <stop stop-color="#1F8AF0" offset="1"/>
  </linearGradient>
 </defs>
 <g>
  <path transform="rotate(-31 -352.4 400.4)" d="m175.1 251.1-8.986-5.083-9.377 5.67 9.11 4.9 9.252-5.487zm4.296 2.188-9.278 5.495 10.52 5.918v15.63l-14.18 7.847-14.02-7.847v-12.2l-9.4-4.545v22.08l23.08 13.34 23.92-13.25v-26.5l-10.64-5.983z" fill="url(#a)" opacity=".139"/>
  <path transform="rotate(-31 -348.4 400.4)" d="m179.1 251.1-8.986-5.083-9.377 5.67 9.11 4.9 9.252-5.487zm4.296 2.188-9.278 5.495 10.52 5.918v15.63l-14.18 7.847-14.02-7.847v-12.2l-9.4-4.545v22.08l23.08 13.34 23.92-13.25v-26.5l-10.64-5.983z" fill="url(#a)" opacity=".284"/>
  <path transform="rotate(-31 -345.4 400.4)" d="m182.1 251.1-8.986-5.083-9.377 5.67 9.11 4.9 9.252-5.487zm4.296 2.188-9.278 5.495 10.52 5.918v15.63l-14.18 7.847-14.02-7.847v-12.2l-9.4-4.545v22.08l23.08 13.34 23.92-13.25v-26.5l-10.64-5.983z" fill="url(#b)"/>
 </g>
 <g fill="#fff" stroke-linecap="square" stroke-width=".5" style="paint-order:markers fill stroke" aria-label="Xupypx-Sys">
  <path d="m88.22 33.31-5.422-9.625-5.531 9.625h-2.703l6.859-11.44-6.344-10.58h2.703l5.031 8.641 4.875-8.641h2.703l-6.172 10.47 6.703 11.55z"/>
  <path d="m95.49 16.41v10.72q0 1.234 0.1406 2.062 0.1562 0.8281 0.4844 1.344 0.3438 0.5 0.8906 0.7188 0.5469 0.2031 1.344 0.2031 0.8125 0 1.469-0.3438 0.6719-0.3594 1.141-1.016 0.4688-0.6719 0.7188-1.641 0.2656-0.9844 0.2656-2.25v-9.797h2.312v13.3t0 1.109q0 0.5938 0.0156 1.125 0.0156 0.5156 0.0312 0.8906t0.0156 0.4844h-2.172q-0.0156-0.07813-0.0312-0.4219 0-0.3438-0.0312-0.7812-0.0156-0.4531-0.0312-0.9062 0-0.4688 0-0.7812h-0.0469q-0.3281 0.7344-0.7344 1.328-0.3906 0.5938-0.9219 1.016-0.5156 0.4062-1.203 0.625-0.6719 0.2344-1.578 0.2344-1.156 0-1.984-0.3438t-1.375-1.062q-0.5312-0.7188-0.7812-1.844t-0.25-2.703v-11.27z"/>
  <path d="m119.6 24.78q0 1.922-0.25 3.547t-0.8594 2.797q-0.5938 1.172-1.578 1.844-0.9688 0.6562-2.406 0.6562-1.484 0-2.609-0.6875-1.109-0.6875-1.688-2.25h-0.0781q0.0156 0.03125 0.0156 0.2812 0.0156 0.25 0.0156 0.625 0.0156 0.375 0.0156 0.8438 0.0156 0.4531 0.0156 0.9062v6.609h-2.312v-20.09q0-0.6094-0.0156-1.172 0-0.5625-0.0156-1.016 0-0.4688-0.0156-0.7969t-0.0312-0.4688h2.234q0.0156 0.04687 0.0312 0.3281l0.0469 0.6719q0.0156 0.4062 0.0312 0.8594t0.0156 0.8594h0.0469q0.3125-0.8125 0.7188-1.375 0.4219-0.5781 0.9531-0.9375 0.5312-0.375 1.172-0.5312 0.6406-0.1719 1.453-0.1719 1.438 0 2.406 0.625 0.9844 0.625 1.578 1.766 0.6094 1.125 0.8594 2.734 0.25 1.594 0.25 3.547zm-2.422 0.0625q0-1.562-0.1562-2.781-0.1406-1.219-0.5312-2.062-0.375-0.8438-1-1.281t-1.578-0.4375q-0.7656 0-1.453 0.2656-0.6719 0.2656-1.188 1.016-0.5 0.75-0.7969 2.078-0.2812 1.312-0.2812 3.422 0 1.797 0.2344 3.047 0.25 1.234 0.7188 2t1.156 1.109q0.6875 0.3281 1.594 0.3281 0.9688 0 1.594-0.4531t1-1.312q0.3906-0.8594 0.5312-2.094 0.1562-1.25 0.1562-2.844z"/>
  <path d="m128.4 33.31q-0.4844 1.531-1 2.75-0.5 1.234-1.125 2.094-0.625 0.875-1.391 1.328-0.7656 0.4688-1.766 0.4688-0.4375 0-0.8125-0.03125t-0.7812-0.1406v-2.109q0.25 0.04687 0.5469 0.0625 0.3125 0.03125 0.5312 0.03125 1.016 0 1.875-0.9219 0.875-0.9219 1.531-2.938l0.2188-0.6719-5.5-16.83h2.469l2.922 9.344t0.3281 1.125l0.3906 1.406q0.2031 0.7031 0.3438 1.266 0.1562 0.5625 0.1875 0.7031 0.0312-0.1719 0.1719-0.6875l0.3438-1.125 0.375-1.266q0.2031-0.6406 0.3281-1.109l2.719-9.656h2.438z"/>
  <path d="m147.3 24.78q0 1.922-0.25 3.547t-0.8594 2.797q-0.5938 1.172-1.578 1.844-0.9688 0.6562-2.406 0.6562-1.484 0-2.609-0.6875-1.109-0.6875-1.688-2.25h-0.0781q0.0156 0.03125 0.0156 0.2812 0.0156 0.25 0.0156 0.625 0.0156 0.375 0.0156 0.8438 0.0156 0.4531 0.0156 0.9062v6.609h-2.312v-20.09q0-0.6094-0.0156-1.172 0-0.5625-0.0156-1.016 0-0.4688-0.0156-0.7969t-0.0312-0.4688h2.234q0.0156 0.04687 0.0312 0.3281l0.0469 0.6719q0.0156 0.4062 0.0312 0.8594t0.0156 0.8594h0.0469q0.3125-0.8125 0.7188-1.375 0.4219-0.5781 0.9531-0.9375 0.5312-0.375 1.172-0.5312 0.6406-0.1719 1.453-0.1719 1.438 0 2.406 0.625 0.9844 0.625 1.578 1.766 0.6094 1.125 0.8594 2.734 0.25 1.594 0.25 3.547zm-2.422 0.0625q0-1.562-0.1562-2.781-0.1406-1.219-0.5312-2.062-0.375-0.8438-1-1.281t-1.578-0.4375q-0.7656 0-1.453 0.2656-0.6719 0.2656-1.188 1.016-0.5 0.75-0.7969 2.078-0.2812 1.312-0.2812 3.422 0 1.797 0.2344 3.047 0.25 1.234 0.7188 2t1.156 1.109q0.6875 0.3281 1.594 0.3281 0.9688 0 1.594-0.4531t1-1.312q0.3906-0.8594 0.5312-2.094 0.1562-1.25 0.1562-2.844z"/>
  <path d="m158.6 33.31-3.734-6.938-3.75 6.938h-2.484l4.938-8.688-4.703-8.219h2.547l3.453 6.578 3.438-6.578h2.578l-4.703 8.188 5 8.719z"/>
  <path d="m162.7 26.06v-2.5h6.391v2.5z"/>
  <path d="m186.5 27.24q0 1.391-0.4531 2.562-0.4375 1.172-1.359 2.031-0.9219 0.8438-2.328 1.328-1.391 0.4688-3.312 0.4688-3.375 0-5.266-1.438-1.875-1.438-2.391-4.156l2.375-0.5781q0.1719 0.8594 0.5469 1.562t1 1.219q0.6406 0.5 1.578 0.7812t2.234 0.2812q1.094 0 2-0.2188 0.9219-0.2344 1.562-0.7031 0.6562-0.4688 1.016-1.203 0.375-0.75 0.375-1.781 0-1.078-0.4062-1.75t-1.141-1.109q-0.7188-0.4375-1.734-0.7344l-2.234-0.6406q-0.75-0.2031-1.516-0.4375-0.7656-0.25-1.469-0.5781-0.7031-0.3438-1.312-0.7969-0.6094-0.4531-1.062-1.078-0.4531-0.6406-0.7188-1.469-0.25-0.8438-0.25-1.938 0-1.562 0.5156-2.672 0.5312-1.125 1.453-1.844 0.9219-0.7188 2.172-1.047 1.266-0.3281 2.719-0.3281 1.672 0 2.859 0.3281 1.203 0.3125 2.016 0.9531 0.8281 0.6406 1.312 1.594 0.5 0.9375 0.7969 2.188l-2.406 0.5156q-0.1719-0.7969-0.5156-1.422t-0.9062-1.047q-0.5469-0.4219-1.344-0.6406-0.7812-0.2188-1.844-0.2188-1.25 0-2.109 0.2812-0.8438 0.2656-1.359 0.7344-0.5156 0.4688-0.75 1.109-0.2188 0.625-0.2188 1.359 0 0.9844 0.4062 1.625 0.4062 0.625 1.094 1.047t1.594 0.7031q0.9219 0.2812 1.938 0.5625 0 0 1.656 0.4844 0.8281 0.2344 1.578 0.5781 0.7656 0.3281 1.422 0.7812t1.141 1.109q0.5 0.6562 0.7656 1.547 0.2812 0.8906 0.2812 2.094z"/>
  <path d="m195.5 33.31q-0.4844 1.531-1 2.75-0.5 1.234-1.125 2.094-0.625 0.875-1.391 1.328-0.7656 0.4688-1.766 0.4688-0.4375 0-0.8125-0.03125t-0.7812-0.1406v-2.109q0.25 0.04687 0.5469 0.0625 0.3125 0.03125 0.5312 0.03125 1.016 0 1.875-0.9219 0.875-0.9219 1.531-2.938l0.2188-0.6719-5.5-16.83h2.469l2.922 9.344t0.3281 1.125l0.3906 1.406q0.2031 0.7031 0.3438 1.266 0.1562 0.5625 0.1875 0.7031 0.0312-0.1719 0.1719-0.6875l0.3438-1.125 0.375-1.266q0.2031-0.6406 0.3281-1.109l2.719-9.656h2.438z"/>
  <path d="m213 28.64q0 1.188-0.375 2.125-0.375 0.9219-1.094 1.562-0.7188 0.625-1.766 0.9688-1.047 0.3281-2.391 0.3281-1.203 0-2.172-0.2344-0.9688-0.2188-1.703-0.7188-0.7188-0.5-1.219-1.312-0.4844-0.8281-0.7188-2.016l2.031-0.4844q0.2969 1.359 1.219 2 0.9219 0.625 2.562 0.625 0.75 0 1.359-0.125 0.625-0.125 1.078-0.4219 0.4531-0.3125 0.7031-0.8125 0.25-0.5156 0.25-1.266 0-0.7656-0.2969-1.25-0.2969-0.5-0.8281-0.8281-0.5156-0.3281-1.266-0.5625l-1.656-0.5469q-0.8281-0.2656-1.656-0.5938-0.8125-0.3281-1.469-0.8594-0.6562-0.5469-1.078-1.344-0.4062-0.7969-0.4062-2 0-2.312 1.344-3.516 1.359-1.219 3.953-1.219 2.297 0 3.641 0.9844 1.359 0.9844 1.719 3.156l-2.078 0.3125q-0.1094-0.6562-0.4219-1.094-0.3125-0.4531-0.75-0.7188-0.4375-0.2812-0.9844-0.3906-0.5312-0.125-1.125-0.125-1.562 0-2.312 0.5781-0.7344 0.5781-0.7344 1.75 0 0.6875 0.2656 1.141 0.2812 0.4375 0.7656 0.75 0.5 0.2969 1.188 0.5156l1.531 0.4844t1.125 0.3594q0.5781 0.2031 1.125 0.4844 0.5469 0.2656 1.016 0.6406 0.4844 0.3594 0.8438 0.875 0.3594 0.5156 0.5625 1.203 0.2188 0.6875 0.2188 1.594z"/>
 </g>
</svg>
